<?xml version="1.0" encoding="utf-8"?><!-- Uploaded to: SVG Repo, www.svgrepo.com, Generator: SVG Repo Mixer Tools -->
<svg fill="#000000" width="800px" height="800px" viewBox="0 0 24 24" id="stats" data-name="Flat Color" xmlns="http://www.w3.org/2000/svg" class="icon flat-color"><rect id="primary" x="2" y="2" width="20" height="20" rx="2" style="fill: rgb(0, 0, 0);"></rect><path id="secondary" d="M16,18a1,1,0,0,1-1-1V7a1,1,0,0,1,2,0V17A1,1,0,0,1,16,18Zm-4,0a1,1,0,0,1-1-1V11a1,1,0,0,1,2,0v6A1,1,0,0,1,12,18ZM8,18a1,1,0,0,1-1-1V15a1,1,0,0,1,2,0v2A1,1,0,0,1,8,18Z" style="fill: rgb(44, 169, 188);"></path></svg>